<?xml version="1.0" encoding="iso-8859-1"?>
<!-- Generator: Adobe Illustrator 19.0.0, SVG Export Plug-In . SVG Version: 6.00 Build 0)  -->
<svg version="1.1" id="Capa_1" xmlns="http://www.w3.org/2000/svg" xmlns:xlink="http://www.w3.org/1999/xlink" x="0px" y="0px"
	 viewBox="0 0 512 512" style="enable-background:new 0 0 512 512;" xml:space="preserve">
<path style="fill:#FFD311;" d="M503.553,318.98c0,0,7.986,95.828-111.799,183.669C271.971,414.807,279.957,318.98,279.957,318.98
	c0-61.729,50.07-111.799,111.799-111.799S503.553,257.251,503.553,318.98z"/>
<path style="fill:#EF3E55;" d="M232.043,119.339c0,0,7.986,95.828-111.799,183.669C0.461,215.167,8.447,119.339,8.447,119.339
	c0-61.729,50.069-111.799,111.798-111.799S232.043,57.611,232.043,119.339z"/>
<path style="fill:#DA174B;" d="M88.302,119.339c0-47.643,29.879-88.23,71.87-104.322c-12.416-4.759-25.841-7.476-39.928-7.476
	c-61.728,0-111.798,50.07-111.798,111.799c0,0-7.986,95.828,111.799,183.669c15.312-11.229,28.509-22.586,39.928-33.857
	C82.254,192.235,88.302,119.339,88.302,119.339z"/>
<path style="fill:#FDB51E;" d="M359.813,318.98c0-47.643,29.879-88.23,71.87-104.322c-12.416-4.759-25.841-7.476-39.928-7.476
	c-61.729,0-111.799,50.07-111.799,111.799c0,0-7.985,95.828,111.799,183.669c15.312-11.229,28.509-22.586,39.928-33.858
	C353.765,391.875,359.813,318.98,359.813,318.98z"/>
<g>
	<rect x="327.867" y="383.306" style="fill:#FFFFFF;" width="15.972" height="15.081"/>
	<rect x="343.844" y="399.282" style="fill:#FFFFFF;" width="15.971" height="15.081"/>
	<rect x="359.81" y="415.248" style="fill:#FFFFFF;" width="15.972" height="15.081"/>
</g>
<g>
	<path style="fill:#E7ECED;" d="M391.755,263.08c22.04,0,39.928,17.887,39.928,39.928c0,22.04-17.887,39.928-39.928,39.928
		c-22.04,0-39.928-17.887-39.928-39.928C351.828,280.968,369.715,263.08,391.755,263.08z"/>
	<path style="fill:#E7ECED;" d="M120.244,63.44c22.041,0,39.928,17.887,39.928,39.928c0,22.04-17.887,39.928-39.928,39.928
		c-22.04,0-39.928-17.887-39.928-39.928C80.317,81.327,98.204,63.44,120.244,63.44z"/>
</g>
<g>
	<rect x="56.364" y="183.67" style="fill:#FFFFFF;" width="15.971" height="15.081"/>
	<rect x="72.331" y="199.636" style="fill:#FFFFFF;" width="15.971" height="15.081"/>
	<rect x="88.306" y="215.612" style="fill:#FFFFFF;" width="15.971" height="15.081"/>
</g>
<g>
	<path style="fill:#231F20;" d="M239.584,119.067c-0.047-21.027-5.641-41.685-16.184-59.759l-13.027,7.599
		c9.244,15.848,14.13,33.979,14.13,52.433l0.026,0.626c0.075,0.904,6.135,90.209-104.283,173.642
		c-56.807-42.937-82.147-87.211-93.419-117.115c-12.501-33.169-10.882-56.319-10.866-56.527l0.026-0.626
		C15.986,61.851,62.756,15.081,120.244,15.081c31.707,0,61.318,14.185,81.24,38.921l11.745-9.46C190.43,16.235,156.538,0,120.244,0
		C54.533,0,1.056,53.39,0.906,119.067c-0.217,3.314-1.262,27.565,11.452,61.792c12.199,32.843,40.045,81.75,103.428,128.23
		l4.459,3.271l4.459-3.271c63.384-46.481,91.23-95.387,103.429-128.23C240.843,146.633,239.8,122.384,239.584,119.067z"/>
	<path style="fill:#231F20;" d="M511.094,318.707c-0.15-65.677-53.627-119.067-119.338-119.067c-22.382,0-44.203,6.239-63.106,18.04
		l7.986,12.793c16.506-10.305,35.566-15.752,55.119-15.752c57.488,0,104.257,46.77,104.257,104.258l0.026,0.626
		c0.074,0.904,6.135,90.209-104.284,173.642c-56.807-42.937-82.148-87.211-93.419-117.115
		c-12.502-33.169-10.882-56.319-10.867-56.527l0.026-0.626c0-30.268,13.143-59.007,36.058-78.849l-9.871-11.401
		c-26.158,22.648-41.189,55.43-41.268,89.978c-0.216,3.313-1.261,27.565,11.453,61.792c12.199,32.842,40.045,81.75,103.428,128.23
		l4.46,3.271l4.46-3.271c63.383-46.481,91.229-95.388,103.428-128.23C512.355,346.274,511.311,322.024,511.094,318.707z"/>
	<path style="fill:#231F20;" d="M431.437,329.057c5.094-7.745,7.787-16.752,7.787-26.048c0-26.174-21.295-47.469-47.469-47.469
		c-26.174,0-47.469,21.295-47.469,47.469c0,26.174,21.295,47.469,47.469,47.469c8.787,0,17.375-2.425,24.833-7.013l-7.902-12.845
		c-5.08,3.126-10.935,4.778-16.931,4.778c-17.859,0-32.388-14.529-32.388-32.388s14.528-32.388,32.388-32.388
		c17.859,0,32.388,14.529,32.388,32.388c0,6.342-1.834,12.484-5.305,17.76L431.437,329.057z"/>
	<path style="fill:#231F20;" d="M120.244,135.755c-9.142,0-17.906-3.899-24.044-10.698l-11.194,10.107
		c8.992,9.96,21.837,15.671,35.238,15.671c26.174,0,47.469-21.294,47.469-47.468s-21.295-47.469-47.469-47.469
		s-47.469,21.295-47.469,47.469c0,5.612,0.973,11.111,2.894,16.343l14.158-5.196c-1.308-3.563-1.971-7.313-1.971-11.147
		c0-17.858,14.529-32.388,32.388-32.388s32.388,14.529,32.388,32.388S138.103,135.755,120.244,135.755z"/>
	<path style="fill:#231F20;" d="M263.666,495.094c-0.058-0.175-0.109-0.402-0.126-0.581v-95.678c0-10.084-8-15.526-15.527-15.526
		h-47.913c-10.084,0-15.526,7.999-15.526,15.526v39.928c0,0.131-0.006,0.236-0.014,0.32c-0.175,0.058-0.402,0.109-0.581,0.125
		h-15.821v15.081h16.071l0,0c7.497-0.047,15.427-5.486,15.427-15.526v-39.928c0-0.002,0.059-0.235,0.126-0.431
		c0.083-0.007,0.189-0.013,0.319-0.013h47.764c0.179,0.017,0.405,0.067,0.581,0.126c0.007,0.083,0.013,0.189,0.013,0.32v95.828
		c0,7.527,5.441,15.527,15.526,15.527h47.913v-15.081h-47.913C263.855,495.108,263.749,495.102,263.666,495.094z M184.011,439.209
		c0.076-0.003,0.119,0,0.119,0H184.011z M247.895,398.391h0.119C248.014,398.391,247.973,398.393,247.895,398.391z M263.541,494.663
		v-0.119C263.544,494.62,263.541,494.663,263.541,494.663z"/>
	<path style="fill:#231F20;" d="M112.704,358.908c0,0.002-0.059,0.235-0.126,0.431c-0.083,0.007-0.189,0.013-0.319,0.013H56.36
		c-7.527,0-15.526,5.442-15.526,15.527v63.884c0,7.527,5.441,15.526,15.526,15.526h31.945v-15.081H56.36
		c-0.131,0-0.236-0.006-0.32-0.014c-0.058-0.175-0.109-0.401-0.126-0.58v-63.736c0-0.131,0.006-0.236,0.014-0.32
		c0.175-0.058,0.402-0.109,0.581-0.125h55.75c10.084,0,15.526-8,15.526-15.526v-31.942h-15.081V358.908z M55.914,438.763v-0.119
		C55.917,438.722,55.914,438.763,55.914,438.763z M56.36,374.433h0.119C56.401,374.435,56.359,374.432,56.36,374.433z"/>
	<rect x="104.272" y="439.208" style="fill:#231F20;" width="15.971" height="15.081"/>
	<rect x="136.214" y="439.208" style="fill:#231F20;" width="15.971" height="15.081"/>
	<rect x="327.867" y="495.109" style="fill:#231F20;" width="15.972" height="15.081"/>
</g>
<g>
</g>
<g>
</g>
<g>
</g>
<g>
</g>
<g>
</g>
<g>
</g>
<g>
</g>
<g>
</g>
<g>
</g>
<g>
</g>
<g>
</g>
<g>
</g>
<g>
</g>
<g>
</g>
<g>
</g>
</svg>
