<svg id="Capa_1" enable-background="new 0 0 511.971 511.971" height="512" viewBox="0 0 511.971 511.971" width="512" xmlns="http://www.w3.org/2000/svg"><g><g><path d="m72.486 201c0-106.867 76.633-193.5 183.5-193.5s183.5 86.633 183.5 193.5c0 148.924-158.688 285.334-181.061 302.638-1.441 1.115-3.437 1.115-4.878 0-22.373-17.304-181.061-153.714-181.061-302.638" fill="#f5de46"/><path d="m279.106 486.007c-9.69 8.76-17.02 14.79-20.68 17.63-1.44 1.12-3.44 1.12-4.88 0-22.37-17.3-181.06-153.71-181.06-302.64 0-72.36 35.14-135.45 91.01-168.64-41.15 35.47-66.01 89.77-66.01 150.64 0 148.93 158.69 285.34 181.06 302.64.18.14.37.26.56.37z" fill="#f3d332"/><g><path d="m395.986 194.987c0 33.566-11.813 64.374-31.508 88.491-25.673 31.437-61.738 42.508-105.492 42.508-77.32 0-137-54.68-137-132 0-43.492 13.832-81.353 44.947-107.031 24.2-19.972 55.226-31.969 89.053-31.969 77.319.001 140 62.681 140 140.001z" fill="#5d748a"/></g><g><path d="m364.476 283.477c-25.67 31.44-64.73 51.51-108.49 51.51-77.32 0-140-62.68-140-140 0-43.76 20.07-82.82 51.51-108.49-19.7 24.12-31.51 54.93-31.51 88.49 0 77.32 62.68 140 140 140 33.56 0 64.37-11.81 88.49-31.51z" fill="#3f597d"/></g><g><g fill="#f5de46"><path d="m190.386 222.887-34.549-5.049c-1.105 0-2-.895-2-2l-3.851-33.351c0-1.105.895-2 2-2h38.4c1.105 0 2 .895 2 2v38.4c0 1.104-.896 2-2 2z"/><path d="m359.986 222.887-33.936-3.857c-1.105 0-2-.895-2-2l-4.464-34.543c0-1.105.895-2 2-2h38.4c1.105 0 2 .895 2 2v38.4c0 1.104-.896 2-2 2z"/><path d="m232.786 180.487-33.374-4.691c-1.105 0-2-.895-2-2l-5.026-33.709c0-1.105.895-2 2-2h38.4c1.105 0 2 .895 2 2v38.4c0 1.104-.896 2-2 2z"/><path d="m317.586 180.487-34.43-5.372c-1.105 0-2-.895-2-2l-3.97-33.028c0-1.105.895-2 2-2h38.4c1.105 0 2 .895 2 2v38.4c0 1.104-.896 2-2 2z"/></g><path d="m234.786 163.487v15c0 1.1-.9 2-2 2h-38.4c-1.1 0-2-.9-2-2v-38.4c0-1.1.9-2 2-2h15v23.4c0 1.1.9 2 2 2z" fill="#f3d332"/><path d="m319.586 163.487v15c0 1.1-.9 2-2 2h-38.4c-1.1 0-2-.9-2-2v-38.4c0-1.1.9-2 2-2h15v23.4c0 1.1.9 2 2 2z" fill="#f3d332"/><path d="m275.186 222.887-34.955-3.857c-1.105 0-2-.895-2-2l-3.445-34.543c0-1.105.895-2 2-2h38.4c1.105 0 2 .895 2 2v38.4c0 1.104-.896 2-2 2z" fill="#f5de46"/><path d="m192.386 205.887v15c0 1.1-.9 2-2 2h-38.4c-1.1 0-2-.9-2-2v-38.4c0-1.1.9-2 2-2h15v23.4c0 1.1.9 2 2 2z" fill="#f3d332"/><path d="m361.986 205.887v15c0 1.1-.9 2-2 2h-38.4c-1.1 0-2-.9-2-2v-38.4c0-1.1.9-2 2-2h15v23.4c0 1.1.9 2 2 2z" fill="#f3d332"/><path d="m277.186 205.887v15c0 1.1-.9 2-2 2h-38.4c-1.1 0-2-.9-2-2v-38.4c0-1.1.9-2 2-2h15v23.4c0 1.1.9 2 2 2z" fill="#f3d332"/></g></g><g><path d="m446.785 191.421c-.174-4.139-3.72-7.368-7.808-7.179-4.139.173-7.353 3.669-7.179 7.808.124 2.951.187 5.962.187 8.95 0 61.024-27.108 126.997-80.572 196.086-42.249 54.597-85.472 90.844-95.443 98.916-20.854-16.646-76.85-67.767-119.263-132.229-2.277-3.459-6.928-4.419-10.388-2.143-3.46 2.277-4.419 6.928-2.143 10.388 54.358 82.617 124.084 137.012 124.78 137.55 2.069 1.602 4.549 2.402 7.03 2.402 2.479 0 4.958-.8 7.028-2.401.506-.392 51.188-39.886 100.263-103.304 24.541-31.714 44.024-63.515 57.909-94.52 17.119-38.228 25.8-75.489 25.8-110.747 0-3.194-.068-6.417-.201-9.577z"/><path d="m79.986 201c0-106.038 75.664-186 176-186 84.805 0 153.795 57.671 171.673 143.507.845 4.056 4.819 6.658 8.872 5.813 4.055-.845 6.657-4.816 5.813-8.872-9.137-43.864-31.957-83.292-64.259-111.022-33.856-29.064-76.078-44.426-122.099-44.426-53.18 0-101.948 20.979-137.321 59.071-34.616 37.277-53.679 87.681-53.679 141.929 0 44.438 13.711 91.74 40.752 140.589 1.905 2.658 5.48 5.278 10.194 2.929 3.624-2.006 4.936-6.57 2.929-10.194-25.796-46.599-38.875-91.456-38.875-133.324z"/><path d="m207.67 55.584c-59.325 20.559-99.185 76.58-99.185 139.402 0 81.332 66.168 147.5 147.5 147.5s147.5-66.168 147.5-147.5-66.168-147.5-147.5-147.5c-4.072 0-8.184.168-12.22.5-4.128.339-7.2 3.96-6.86 8.089.339 4.128 3.962 7.202 8.089 6.86 3.629-.298 7.328-.449 10.992-.449 73.061 0 132.5 59.439 132.5 132.5s-59.439 132.5-132.5 132.5-132.5-59.439-132.5-132.5c0-56.436 35.805-106.762 89.096-125.229 3.914-1.356 5.987-5.628 4.631-9.542-1.357-3.914-5.631-5.988-9.543-4.631z"/><path d="m234.785 130.587h-42.4c-4.142 0-7.5 3.358-7.5 7.5v34.9h-34.9c-4.142 0-7.5 3.358-7.5 7.5v42.4c0 4.142 3.358 7.5 7.5 7.5h42.4c4.142 0 7.5-3.358 7.5-7.5v-34.9h27.4v34.9c0 4.142 3.358 7.5 7.5 7.5h42.4c4.143 0 7.5-3.358 7.5-7.5v-34.9h27.399v34.9c0 4.142 3.357 7.5 7.5 7.5h42.4c4.143 0 7.5-3.358 7.5-7.5v-42.4c0-4.142-3.357-7.5-7.5-7.5h-34.9v-34.9c0-4.142-3.357-7.5-7.5-7.5h-42.399c-4.143 0-7.5 3.358-7.5 7.5v34.9h-27.4v-34.9c0-4.142-3.358-7.5-7.5-7.5zm-49.9 84.8h-27.4v-27.4h27.4zm15-69.8h27.4v27.4h-27.4zm154.601 69.8h-27.4v-27.4h27.4zm-69.8-69.8h27.399v27.4h-27.399zm-15 69.8h-27.4v-27.4h27.4z"/></g></g></svg>